<svg width="10" height="18" viewBox="0 0 10 18" xmlns="http://www.w3.org/2000/svg"><title>D01F345A-79FE-4864-9D63-15CF50C1192A</title><path d="M9.295.004L6.982 0C4.383 0 2.704 1.723 2.704 4.39v2.024H.378a.364.364 0 0 0-.364.364V9.71c0 .201.163.364.364.364h2.326v7.4c0 .2.162.363.363.363h3.035a.364.364 0 0 0 .364-.363v-7.4h2.719a.364.364 0 0 0 .364-.364V6.778a.364.364 0 0 0-.363-.364h-2.72V4.698c0-.825.196-1.243 1.27-1.243h1.558c.201 0 .364-.164.364-.365V.367c0-.2-.163-.363-.363-.363z" fill="#4A4A4A" fill-rule="evenodd"/></svg>