<svg width="20" height="12" viewBox="0 0 20 12" xmlns="http://www.w3.org/2000/svg"><title>B750567E-34E3-4FF6-BDD6-4A626B63409A</title><path d="M17.711 4.776c.284-.367.51-.662.676-.884 1.2-1.595 1.72-2.613 1.56-3.057L19.885.73c-.042-.063-.15-.12-.323-.172-.173-.052-.395-.06-.665-.026L15.9.554a.853.853 0 0 0-.343.036l-.052.026-.041.031a.46.46 0 0 0-.115.11.706.706 0 0 0-.104.182 16.967 16.967 0 0 1-1.112 2.34c-.257.43-.493.803-.708 1.118a5.336 5.336 0 0 1-.54.696 3.752 3.752 0 0 1-.396.36c-.118.09-.208.127-.27.114a5.18 5.18 0 0 1-.177-.042.687.687 0 0 1-.234-.255 1.143 1.143 0 0 1-.12-.405 4.376 4.376 0 0 1-.036-.422 8.321 8.321 0 0 1 .006-.499c.007-.215.01-.36.01-.437 0-.263.005-.55.016-.858l.026-.733c.006-.18.01-.37.01-.572 0-.2-.012-.359-.037-.473a1.658 1.658 0 0 0-.109-.333.558.558 0 0 0-.213-.25 1.203 1.203 0 0 0-.348-.14C10.646.065 10.178.02 9.609.013c-1.29-.014-2.118.07-2.485.25-.146.076-.278.18-.395.312-.125.152-.143.236-.052.25.416.062.71.21.884.446l.062.125c.049.09.097.25.146.479.048.228.08.481.093.759.035.506.035.94 0 1.3-.034.36-.067.641-.098.842a1.687 1.687 0 0 1-.14.489 2.044 2.044 0 0 1-.126.229.183.183 0 0 1-.051.052.78.78 0 0 1-.281.052c-.097 0-.215-.049-.354-.146a2.46 2.46 0 0 1-.431-.4 5.322 5.322 0 0 1-.505-.713 12.35 12.35 0 0 1-.582-1.081l-.167-.302a25.501 25.501 0 0 1-.426-.848c-.18-.37-.34-.73-.478-1.076a.689.689 0 0 0-.25-.333L3.92.668A.707.707 0 0 0 3.755.58a1.12 1.12 0 0 0-.24-.068l-2.85.02C.376.533.178.6.074.732L.03.793A.335.335 0 0 0 0 .959c0 .077.02.17.062.281.417.978.869 1.92 1.358 2.829.489.908.913 1.64 1.274 2.194.36.555.728 1.079 1.102 1.57.375.493.623.809.744.947.121.139.216.243.286.312l.26.25c.166.166.41.366.733.598.322.232.68.461 1.071.686.392.226.848.41 1.368.552.52.142 1.026.199 1.518.171h1.196c.243-.02.427-.097.551-.229l.042-.052a.705.705 0 0 0 .078-.192c.024-.086.037-.182.037-.286a3.422 3.422 0 0 1 .067-.806c.052-.239.11-.42.177-.54a1.329 1.329 0 0 1 .4-.458.843.843 0 0 1 .084-.037c.166-.055.362-.001.587.161.225.164.437.364.635.604.197.239.435.507.712.806.277.298.52.52.728.665l.208.125c.139.083.319.16.54.23.223.068.417.086.583.051l2.663-.042c.263 0 .468-.043.613-.13.146-.086.232-.182.26-.286a.807.807 0 0 0 .006-.353 1.29 1.29 0 0 0-.073-.275 1.41 1.41 0 0 0-.068-.13c-.347-.624-1.009-1.39-1.986-2.299l-.021-.02-.01-.011-.011-.01h-.01c-.444-.423-.725-.708-.843-.853-.215-.277-.263-.558-.145-.842.082-.216.394-.67.935-1.364z" fill="#FFF" fill-rule="evenodd"/></svg>