<svg width="18" height="11" viewBox="0 0 18 11" xmlns="http://www.w3.org/2000/svg"><title>B67199C7-82EB-4021-B7A7-C5EAA36A7082</title><path d="M15.94 4.299c.256-.33.459-.596.608-.796 1.08-1.435 1.548-2.352 1.404-2.752l-.056-.093C17.86.6 17.762.55 17.606.503 17.45.456 17.25.449 17.007.48l-2.696.019a.768.768 0 0 0-.309.032l-.046.023-.038.028a.414.414 0 0 0-.103.099.635.635 0 0 0-.093.164A15.27 15.27 0 0 1 12.72 2.95c-.23.387-.443.722-.636 1.006a4.802 4.802 0 0 1-.487.627c-.131.134-.25.242-.356.323-.106.081-.187.115-.243.103a4.662 4.662 0 0 1-.16-.038.618.618 0 0 1-.21-.229 1.029 1.029 0 0 1-.107-.365 3.938 3.938 0 0 1-.033-.38 7.489 7.489 0 0 1 .005-.448c.006-.194.009-.325.009-.393 0-.237.005-.495.014-.773l.023-.66c.007-.162.01-.333.01-.514s-.011-.323-.033-.426a1.492 1.492 0 0 0-.098-.3.503.503 0 0 0-.192-.224 1.083 1.083 0 0 0-.314-.127C9.582.058 9.16.018 8.65.011 7.488 0 6.742.074 6.41.236c-.13.07-.25.163-.355.281-.113.138-.128.213-.047.225.375.056.64.19.796.402l.056.112c.043.082.087.225.13.431.044.206.073.434.085.683.031.456.031.846 0 1.17-.031.325-.06.578-.089.758a1.518 1.518 0 0 1-.238.646.165.165 0 0 1-.047.047.703.703 0 0 1-.253.047c-.087 0-.193-.044-.318-.131a2.214 2.214 0 0 1-.389-.36 4.79 4.79 0 0 1-.454-.642 11.115 11.115 0 0 1-.524-.973l-.15-.272a22.951 22.951 0 0 1-.383-.762 14.607 14.607 0 0 1-.43-.97.62.62 0 0 0-.225-.299L3.529.601a.637.637 0 0 0-.15-.08 1.009 1.009 0 0 0-.215-.06L.599.479C.337.48.159.54.066.658L.028.714A.302.302 0 0 0 0 .864c0 .068.019.152.056.252.375.88.782 1.729 1.222 2.546.44.817.822 1.476 1.146 1.975.325.5.656.97.993 1.414.337.443.56.726.669.851.109.125.195.219.257.28l.234.226c.15.15.37.329.66.538.29.21.611.415.964.618s.763.368 1.231.496c.468.128.923.18 1.367.154h1.076c.218-.018.384-.087.496-.206l.037-.046a.635.635 0 0 0 .07-.173.957.957 0 0 0 .034-.258 3.08 3.08 0 0 1 .06-.725c.047-.216.1-.378.16-.487a1.196 1.196 0 0 1 .36-.412.758.758 0 0 1 .075-.033c.15-.05.326-.001.529.145.202.147.393.328.57.543.178.216.392.457.642.726.25.268.468.468.655.599l.187.112a2.3 2.3 0 0 0 .487.206c.2.062.374.078.524.047l2.396-.038c.237 0 .422-.039.553-.117.13-.077.209-.164.234-.257a.727.727 0 0 0 .004-.318 1.162 1.162 0 0 0-.065-.248 1.27 1.27 0 0 0-.061-.117c-.312-.561-.908-1.251-1.788-2.069l-.019-.018-.01-.01-.008-.009h-.01c-.4-.38-.652-.636-.758-.768-.193-.249-.237-.502-.13-.757.074-.194.354-.603.84-1.227z" fill="#FFF" fill-rule="evenodd"/></svg>