<svg width="152" height="150" viewBox="0 0 152 150" xmlns="http://www.w3.org/2000/svg"><title>97ED53B0-CD31-4DD6-BD72-B8FF3913BF4B</title><g fill-rule="nonzero" fill="#4A4A4A"><path d="M148.098 123.438c1.902 0 3.444-1.526 3.444-3.41V3.643c0-1.436-.91-2.718-2.274-3.207a3.466 3.466 0 0 0-3.819 1.028L25.63 144.18a3.38 3.38 0 0 0-.47 3.627 3.448 3.448 0 0 0 3.119 1.96h119.82c1.903 0 3.445-1.525 3.445-3.408 0-1.884-1.542-3.41-3.444-3.41H35.618L144.654 13.078v106.95c0 1.884 1.542 3.41 3.444 3.41z"/><path d="M121.642 65.566L77.746 117.85a3.38 3.38 0 0 0-.468 3.626 3.448 3.448 0 0 0 3.118 1.961h43.895c1.902 0 3.444-1.526 3.444-3.409V67.745c0-1.436-.91-2.718-2.274-3.206a3.467 3.467 0 0 0-3.82 1.027zm-.796 51.054h-33.11l33.11-39.44v39.44zM28.835 111.152l8.236-10.241 44.321-55.107c.005-.005.008-.012.012-.017.022-.027.04-.055.06-.082.08-.108.153-.218.218-.33.017-.03.035-.059.05-.088.079-.144.145-.292.2-.443.003-.008.008-.014.01-.022l13.126-36.58a3.388 3.388 0 0 0-1.1-3.808 3.474 3.474 0 0 0-3.997-.208L56.9 25.086l-.05.035a3.22 3.22 0 0 0-.146.103c-.046.034-.091.067-.135.103a3.13 3.13 0 0 0-.118.102 3.418 3.418 0 0 0-.14.129c-.031.03-.06.064-.09.096a3.235 3.235 0 0 0-.14.157l-.025.028-33.931 42.189a3.386 3.386 0 0 0 .55 4.79 3.469 3.469 0 0 0 4.839-.544l31.786-39.522 14.559 11.473-40.03 49.772-17.254-13.595a3.468 3.468 0 0 0-4.84.544L3.5 91.186C.826 94.51-.38 98.664.105 102.884c.484 4.22 2.6 8.002 5.956 10.647l.2.157a16.22 16.22 0 0 0 9.998 3.462c4.927 0 9.51-2.186 12.576-5.998zM64.671 28.27l5.019-3.166 3.45 2.72c.635.5 1.392.741 2.144.741 1.013 0 2.017-.44 2.697-1.285a3.386 3.386 0 0 0-.55-4.79l-1.598-1.26 9.391-5.924-8.156 22.733-12.397-9.77zm-48.412 82.062a9.134 9.134 0 0 1-5.707-1.978l-.2-.158a9 9 0 0 1-3.403-6.081 8.96 8.96 0 0 1 1.939-6.683l6.09-7.573 14.56 11.472-6.091 7.574a9.173 9.173 0 0 1-7.188 3.427z"/><path d="M35.806 80.157c1.013 0 2.017-.44 2.697-1.286l22.521-28.002a3.386 3.386 0 0 0-.55-4.79 3.469 3.469 0 0 0-4.839.544L33.114 74.625a3.386 3.386 0 0 0 .55 4.79c.633.5 1.39.742 2.142.742z"/></g></svg>