<svg width="131" height="150" viewBox="0 0 131 150" xmlns="http://www.w3.org/2000/svg"><title>FDA72AC4-FD7B-4845-9153-E072800F6764</title><g fill-rule="nonzero" fill="#4A4A4A"><path d="M82.273 3.798c-4.488-2.356-9.458-3.99-14.96-3.75h-.578c-7.962.385-8.83 1.01-14.959 3.75h30.497zm-30.449 0C41.932 9.135 35.177 19.52 35.177 31.49v9.087h-2.75c-1.979 0-3.62 1.635-3.62 3.606 0 1.97 1.641 3.605 3.62 3.605h55.395v7.26c0 11.298-9.217 20.48-20.556 20.48h-.483c-9.554 0-17.757-6.441-19.977-15.672-.482-1.923-2.413-3.125-4.343-2.644-1.93.48-3.136 2.403-2.654 4.326 2.992 12.5 14.09 21.202 27.022 21.202h.483c15.296 0 27.794-12.403 27.794-27.692v-7.26h6.563c1.978 0 3.619-1.634 3.619-3.605s-1.641-3.606-3.62-3.606h-2.75V31.49c0-11.97-6.707-22.355-16.6-27.692H51.825zM42.415 31.49c0-7.74 3.667-14.663 9.361-19.086v1.394c0 1.971 1.64 3.606 3.62 3.606 1.978 0 3.618-1.635 3.618-3.606V8.51a24.057 24.057 0 0 1 7.72-1.25h.58c2.702 0 5.308.432 7.72 1.25v5.288c0 1.971 1.641 3.606 3.62 3.606 1.978 0 3.619-1.635 3.619-3.606v-1.394c5.693 4.423 9.409 11.346 9.409 19.086v9.087H42.463V31.49h-.048zM102.925 88.798H28.421c-15.44 0-27.987 12.5-27.987 27.885v29.375c0 1.97 1.64 3.605 3.62 3.605H127.34c1.979 0 3.62-1.634 3.62-3.605v-29.375c0-15.385-12.595-27.885-28.036-27.885zM7.672 116.683c0-11.395 9.313-20.673 20.75-20.673H39.663v26.394c0 1.971 1.641 3.606 3.62 3.606h44.779c1.978 0 3.619-1.635 3.619-3.606V105.24c0-1.97-1.64-3.605-3.619-3.605-1.978 0-3.62 1.634-3.62 3.605v13.558h-37.54V96.01h51.1v46.49h-64.66v-29.567c0-1.971-1.64-3.606-3.619-3.606-1.978 0-3.619 1.635-3.619 3.606V142.5H7.672v-25.817zm116.05 25.769H105.29V96.106c10.374 1.154 18.432 9.952 18.432 20.577v25.769z"/><path d="M43.284 137.02h44.779c1.978 0 3.619-1.635 3.619-3.607 0-1.97-1.64-3.605-3.619-3.605h-44.78c-1.978 0-3.618 1.634-3.618 3.605 0 1.972 1.64 3.606 3.619 3.606z"/></g></svg>