<svg width="160" height="150" viewBox="0 0 160 150" xmlns="http://www.w3.org/2000/svg"><title>EC83A452-6A4A-4065-A237-06D2E9A1F102</title><path d="M158.958 28.632a5.133 5.133 0 0 0-3.987-2.182l-99.176-4.257a5.109 5.109 0 0 0-5.345 4.884c-.121 2.82 2.072 5.202 4.904 5.323l92.462 3.97-18.18 56.484H48.733L34.117 13.603a5.113 5.113 0 0 0-3.17-3.831L7.007.407C4.37-.623 1.393.668.357 3.293a5.104 5.104 0 0 0 2.898 6.623l21.286 8.327 14.874 80.642a5.125 5.125 0 0 0 5.046 4.185h2.468l-5.635 15.585a4.235 4.235 0 0 0 .526 3.889 4.28 4.28 0 0 0 3.496 1.81h3.952c-2.449 2.713-3.952 6.286-3.952 10.216 0 8.45 6.905 15.325 15.39 15.325 8.484 0 15.389-6.874 15.389-15.325 0-3.93-1.503-7.503-3.952-10.217h33.553c-2.45 2.714-3.952 6.287-3.952 10.217 0 8.45 6.903 15.325 15.389 15.325s15.39-6.874 15.39-15.325c0-3.93-1.503-7.503-3.951-10.217h4.806c2.361 0 4.274-1.906 4.274-4.256 0-2.352-1.913-4.257-4.274-4.257h-81.98l4.617-12.771h77.362a5.126 5.126 0 0 0 4.884-3.549l21.375-66.408a5.08 5.08 0 0 0-.677-4.48zm-98.253 112.75c-3.773 0-6.84-3.054-6.84-6.81 0-3.757 3.067-6.812 6.84-6.812 3.772 0 6.84 3.055 6.84 6.812 0 3.756-3.068 6.81-6.84 6.81zm56.427 0c-3.772 0-6.84-3.054-6.84-6.81 0-3.757 3.068-6.812 6.84-6.812s6.84 3.055 6.84 6.812c0 3.756-3.068 6.81-6.84 6.81z" fill-rule="nonzero" fill="#4A4A4A"/></svg>